<?xml version="1.0" encoding="utf-8"?>
<svg version="1.1" xmlns="http://www.w3.org/2000/svg" xmlns:xlink="http://www.w3.org/1999/xlink" x="0px" y="0px" viewBox="0 0 1280 800" xml:space="preserve">
<style type="text/css">
	.st0{fill:none;}
	.st1{opacity:0.2;fill:#CCCCCC;}
	.st2{opacity:0.25;fill:#CCCCCC;}
	.st3{opacity:0.1;fill:#CCCCCC;}
</style>

<rect x="-290.6" y="-641.8" transform="matrix(0.7071 -0.7071 0.7071 0.7071 -406.804 563.2809)" class="st0" width="1534.3" height="2829"/>
<polygon class="st1" points="1343.2,76.3 -421.3,-366.6 -283.2,1082.8"/>
<polygon class="st2" points="1869.2,47.3 0,-10 242.8,1053.8"/>
<polygon class="st3" points="1051.8,19.6 -1220.7,-550.9 -1042.9,1315.9"/>
<polygon class="st2" points="944,-703.9 -652.2,4.4 260.8,1037.5"/>
<polygon class="st1" points="-111.8,1516.8 532.9,-117.2 -800.2,-42.3"/>

<rect y="-10" class="st0" width="1280" height="800"/>

<rect x="-548.2" y="271" transform="matrix(0.7071 -0.7071 0.7071 0.7071 -480.3539 916.6385)" class="st0" width="2829" height="1534.3"/>
<polygon class="st2" points="1591.7,2440.8 1649,571.6 585.2,814.4"/>
<polygon class="st3" points="1619.4,1613.4 2189.9,-659.1 323.1,-481.3"/>
<polygon class="st2" points="2342.9,1535.6 1634.6,-60.6 601.5,852.4"/>
<polygon class="st2" points="1593.9,1524.6 705.8,-476.7 -589.5,668"/>
<polygon class="st1" points="-9.1,505.1 1756.2,1201.6 1675.3,-238.6"/>

<rect x="609" y="801.6" transform="matrix(-1.836970e-16 1 -1 -1.836970e-16 2450.6194 -47.3806)" class="st0" width="1280" height="800"/>
</svg>